# xmcd CD database file
#
# Track frame offsets:
#	150
#	13315
#	31822
#	48935
#	67907
#	91782
#	109795
#	127662
#	146050
#	161445
#	181720
#	202757
#
# Disc length: 2920 seconds
#
# Revision: 0
# Processed by: cddbd v1.5.2PL0 Copyright (c) Steve Scherf et al.
# Submitted via: CDex 1.51
#
DISCID=8b0b660c
DTITLE=Various Artist - jazz guitar who's who_the art of solo guitar
DYEAR=1999
DGENRE=Jazz
TTITLE0=how about you-Ron Eschete
TTITLE1=emily-Gene Bertocini
TTITLE2=here's that rainy day-Jack Wilkins
TTITLE3=foolin' myself-Charlie Byrd
TTITLE4=prelude to a kiss-Royce Campbell
TTITLE5=amanhecer-John Pisano
TTITLE6=alone together-Peter Leitch
TTITLE7=for all we know-Cal Collins
TTITLE8=stella by starlight-Joe Diorio
TTITLE9=oh! lady be good-Mundell Lowe
TTITLE10=paramus blues-Bucky Pizzarelli
TTITLE11=oleo-Yoshiaki Miyanoue
EXTD=YEAR: 1999
EXTT0=
EXTT1=
EXTT2=
EXTT3=
EXTT4=
EXTT5=
EXTT6=
EXTT7=
EXTT8=
EXTT9=
EXTT10=
EXTT11=
PLAYORDER=
